<?xml version="1.0" encoding="utf-8"?>
<!-- Generator: Adobe Illustrator 26.1.0, SVG Export Plug-In . SVG Version: 6.00 Build 0)  -->
<svg version="1.1" id="Layer_1" xmlns="http://www.w3.org/2000/svg" xmlns:xlink="http://www.w3.org/1999/xlink" x="0px" y="0px"
	 viewBox="0 0 531 405" style="enable-background:new 0 0 531 405;" xml:space="preserve">
<style type="text/css">
	.st0{fill:#E71E25;}
	.st1{fill:#F8EC28;stroke:#000000;stroke-width:6;stroke-miterlimit:10;}
	.st2{stroke:#000000;stroke-miterlimit:10;}
	.st3{fill:#FFFFFF;stroke:#000000;stroke-miterlimit:10;}
	.st4{fill:none;stroke:#000000;stroke-miterlimit:10;}
	.st5{fill:none;stroke:#000000;stroke-width:6;stroke-miterlimit:10;}
</style>
<g>
	<g>
		<path class="st4" d="M224.89,280.41c11.44,5.67,24.1,8.96,37.23,9.28c33.68,0.82,64.89-17.94,80.96-47.38
			c7.85-14.38,11.96-30.84,11.22-47.24c-0.37-8.24-1.98-16.42-4.82-24.17c-1.48-4.03-3.54-7.68-5.33-11.55
			c-0.78-1.7-0.7-3.33-1.65-4.93c-1.17-1.99-2.84-3.82-4.13-5.76c-2.56-3.84-5.03-7.8-8.42-10.99"/>
		<path class="st4" d="M293.99,114.21c-35.47-11.37-75.36-1.64-99.4,27.47c-21.43,25.94-27.27,64.4-12.75,94.94
			c5.95,12.53,14.59,23.46,25.05,32.1"/>
		<path d="M206.19,270.71c0.41-0.22,0.82-0.46,1.22-0.72c0.24-0.15,0.47-0.31,0.7-0.47c0.2-0.18,0.39-0.36,0.57-0.55
			c0.17-0.76,0.54-1.43,1.02-2c-19.87-15.96-32.61-40.44-32.61-67.85c0-47.97,39.03-87,87-87c10.37,0,20.32,1.83,29.55,5.17
			c0.32-2.43,2.49-4.32,4.72-4.62c-10.61-4.22-22.18-6.56-34.28-6.56c-51.28,0-93,41.72-93,93c0,29.06,13.4,55.05,34.35,72.12
			C205.67,271.04,205.92,270.86,206.19,270.71z"/>
		<path d="M330.77,134.37c-0.48,1.59-1.72,2.9-3.44,3.45c-0.46,0.15-0.94,0.19-1.41,0.18c15.54,15.72,25.16,37.32,25.16,61.12
			c0,47.97-39.03,87-87,87c-16.08,0-31.14-4.41-44.08-12.05c0.32,2.13-0.56,4.48-2.64,5.43c13.74,8.02,29.7,12.62,46.72,12.62
			c51.28,0,93-41.72,93-93C357.09,173.97,347.05,151.12,330.77,134.37z"/>
	</g>
	<path class="st5" d="M296.89,113.47c0.95-0.83,1.9-1.66,2.85-2.48c2.1-1.83,3.82-2.38,6.59-1.35c11.96,4.44,24.03,8.56,36.03,12.87
		c1.01,0.36,1.82,1.3,2.72,1.96c-3.2,3.42-1.35,1.91-2.25,2.52c-15.79,10.67-31.63,21.28-47.44,31.92
		c-0.48,0.32-0.91,0.73-1.82,1.47c8.07,2.85,15.64,5.53,23.21,8.2c1.69,0.6,3.44,1.09,5.07,1.84c0.85,0.39,2.01,1.14,2.11,1.87
		c0.1,0.68-0.85,1.76-1.6,2.28c-8.4,5.82-16.85,11.57-25.28,17.35c-8.71,5.97-17.42,11.95-26.12,17.93
		c-0.41,0.28-0.79,0.61-1.56,1.22c1.11,0.46,1.9,0.83,2.72,1.12c7.74,2.75,15.51,5.45,23.23,8.26c0.93,0.34,2.24,1.22,2.29,1.94
		c0.06,0.77-0.99,1.89-1.82,2.45c-36.19,24.5-72.41,48.95-108.63,73.41c-0.28,0.19-0.56,0.52-0.86,0.55
		c-0.91,0.09-1.83,0.07-2.75,0.1c0.16-0.91,0.01-2.09,0.52-2.69c2.56-3.02,5.28-5.89,7.95-8.81c17.99-19.69,35.97-39.38,53.95-59.07
		c0.39-0.42,0.7-0.91,1.26-1.65c-1.08-0.44-1.9-0.82-2.75-1.13c-9.04-3.2-18.08-6.37-27.1-9.63c-0.94-0.34-1.69-1.24-2.52-1.88
		c0.65-0.83,1.15-1.88,1.98-2.47c16.28-11.48,32.61-22.9,48.92-34.34c0.9-0.63,1.77-1.32,3.08-2.3c-1.22-0.51-2.02-0.88-2.85-1.18
		c-7.58-2.7-15.17-5.37-22.75-8.06c-3.89-1.38-4.05-2.23-1.01-4.86C260.49,145.05,278.73,129.3,296.89,113.47"/>
	<g>
		<g>
			<path class="st2" d="M185.85,208.52c2.94-5.37,5.94-9.02,8.52-8.95c2.34,0.06,13.56,5.24,8.7,10.15
				c-5.54,10.62-8.02,23.69-8.22,35.34c-0.07,3.95,0.48,7.64,1.8,10.36c0.3,1.33-1.98,4.86-6.06,4.67
				c-4.86-0.22-11.34-6.49-11.7-11.57c0-0.86,0-1.3,0-2.16c-1.8-0.79-3.66-1.99-4.8-3.35c-0.91-1.01-1.37-1.52-2.28-2.55
				c-2.76,5.82-5.94,10.3-8.64,9.74c-4.5-0.93-9.78-8.29-9.78-12.85c0-1.8,0.78-3.5,2.34-4.65c8.29-3.22,11.85-17.73,14.7-25.15
				c2.22-5.53,4.02-9.54,5.94-9.3c3.66,0.45,8.28,6.11,9.48,9.31C185.85,207.94,185.85,208.14,185.85,208.52z"/>
			<path class="st2" d="M228.75,237.91c0.6,0.6,0.9,1.53,0.66,2.7c-0.9,2.73-4.68,13.75-11.46,14.19c-1.62,0.11-2.94-0.48-3.96-1.45
				c-3.17,0.81-4.75,1.2-7.92,1.92c-2.58,0.06-4.56-0.77-5.94-2.15c-4.8-3.61-6.15-7.56-6.06-12.03
				c0.17-9.02,5.47-23.23,14.64-24.53c2.12-0.3,4.14,0.73,5.34,1.81c1.26-1.39,2.76-2.13,4.5-2.25c3.54-0.24,5.4,0.69,8.4,4.08
				c1.2,1.09,0.96,2.85-0.24,4.16c-1.38,1.5-2.88,5.89-3.9,10.41c0.42-0.15,0.78-0.3,1.08-0.33
				C225.03,234.34,225.99,234.93,228.75,237.91z"/>
			<path class="st2" d="M253.47,234.86c0.66,0.57,0.9,1.56,0.48,2.76c-0.96,3.01-4.68,13.97-11.46,14.8c-2.58,0.32-4.5-0.42-6-1.7
				c-0.78,2.49-3.84,2.7-5.76,2.89c-0.17,0.02-0.25,0.03-0.42,0.04c-1.08,0.11-1.98-0.17-2.7-0.82c-4.44-2.95-5.46-6.44-5.4-11.18
				c0.15-12.29,5.16-39.26,15.42-42.78c2.56-0.88,5.22,0.53,8.04,3.71c1.14,1,1.08,2.56,0.3,3.92c-1.5,2.17-2.76,4.49-3.78,7.13
				c2.22-0.09,3.72,0.68,6.66,3.84c1.26,1.1,1.74,2.89,1.74,5.11c0,2.58-0.96,5.83-2.34,9.07c0.12-0.02,0.18-0.02,0.3-0.04
				C249.69,231.47,250.59,231.95,253.47,234.86z"/>
			<path class="st2" d="M246.99,236.01c0.04-8.16,2.78-22.17,10.92-24.26c3.22-0.83,5.64,0.36,6.24,1.71
				c0.31,0.27,0.47,0.4,0.78,0.67c1.62-2.27,3.6-3.86,5.7-4.15c3.48-0.48,5.46,0.33,6.06,1.63c1.02-1.64,2.04-2.74,3.12-2.88
				c3.96-0.53,8.46,4.62,8.46,9.96c0,2.22-0.42,4.97-1.08,7.81c1.02-0.01,1.86,0.49,4.62,3.34c0.6,0.53,0.84,1.46,0.66,2.5
				c-0.84,2.8-4.44,13.94-11.52,14.87c-1.32,0.17-2.52-0.27-3.42-1.04c-1.26,1.07-2.58,1.85-3.9,2.03c-2.94,0.4-5.16-0.24-6.78-1.58
				c-1.98-1.64-2.22-1.79-2.4-1.88c-1.86,3.08-4.2,5.33-7.14,5.73c-1.62,0.22-2.94-0.2-3.96-1.08
				C248.31,246.3,246.96,241.57,246.99,236.01z"/>
			<path class="st2" d="M285.39,228.65c0.11-9.67,6.05-21.22,16.2-22.59c3.05-0.41,5.34,0.83,8.46,4.43
				c1.56,1.44,2.28,3.74,2.28,6.32c0,2.34-0.72,4.97-1.92,7.39c1.02,0.05,1.74,0.59,4.5,3.54c0.6,0.56,0.84,1.51,0.66,2.54
				c-0.84,2.75-4.56,13.57-13.26,14.4c-4.32,0.41-7.44-0.62-9.66-2.58C287.19,238.6,285.33,233.93,285.39,228.65z"/>
			<path class="st2" d="M308.13,226.24c0.09-9.47,6.02-20.99,16.2-21.63c3.05-0.19,5.34,1.22,8.46,5.09
				c1.56,1.58,2.28,3.93,2.28,6.51c0,2.34-0.72,4.9-1.92,7.23c1.02,0.13,1.74,0.73,4.5,3.94c0.6,0.62,0.84,1.59,0.66,2.6
				c-0.84,2.67-4.56,13.11-13.26,13.31c-4.32,0.1-7.44-1.12-9.66-3.21C309.93,236.26,308.08,231.53,308.13,226.24z"/>
			<path class="st2" d="M374.97,221.86c1.62,2.03,2.79,4.95,2.64,8.2c-0.45,9.56-9.39,19.79-19.74,18.66
				c-4.02-0.44-7.02-2.06-9-4.16c-3-2.91-3.9-3.97-4.62-5.16c0,0.31,0,0.47,0,0.78c0,2.76-4.08,3.3-6.36,3.23
				c-1.5-0.05-2.58-0.51-5.52-3.53c-1.86-0.97-2.58-3.13-2.58-6.07c0-3.3,0.96-7.56,1.92-11.88c0.07-0.34,0.11-0.5,0.18-0.84
				c0.84-3.9,1.68-7.66,1.68-10.3c0-0.78-0.3-1.67-0.42-2.35c-0.49-2.65,3.3-4.02,4.74-3.91c2.32,0.16,4.92,1.78,6.06,3.77
				c0.12,0.1,0.18,0.16,0.3,0.26c1.8-2.04,3.6-3.28,5.1-3.14c3.18,0.29,5.22,2.21,8.46,6.39c1.32,1.51,2.04,3.24,2.4,4.38
				c1.02-1.46,2.78-2.64,5.22-2.1C368.59,214.8,371.43,216.51,374.97,221.86z M359.31,219.89c-0.72,1.57-1.49,3.87-2.16,7.07
				c-0.53,2.56-0.84,5.11-0.84,7.51c0,1.2,0,2.28,0.12,3.2c3.36-0.93,6.36-10.13,6.36-15.29
				C362.79,221.72,360.03,220.36,359.31,219.89z"/>
		</g>
	</g>
	<g>
		<path class="st2" d="M237.3,189.22c0.42,0,0.72,0.3,3.42,3.36c1.38,1.44-1.32,11.46-6.9,11.46c-4.62,0-10.02-6.06-12.48-9.96v1.32
			c0,1.5,0.12,2.82,0.54,3.84c0.12,1.26-0.42,4.68-5.04,4.68c-4.68,0-11.16-5.4-11.16-10.38c0-3.54,1.86-13.56,4.38-23.1
			c-2.64-1.08-9.18-3.06-9.36-8.76c-0.12-4.5,8.1-18.3,21.36-18.3c10.92,0,18.18,7.92,18.18,18.12c0,8.22-4.92,17.88-10.8,21.66
			c0.42,1.74,1.74,4.32,3.3,6.42c0.54,0.36,1.02,0.54,1.44,0.54c1.32,0,1.56-0.24,1.56-0.24L237.3,189.22z"/>
		<path class="st2" d="M270.42,183.1c0.6,0.66,0.9,1.62,0.66,2.76c-0.9,2.64-4.68,13.26-11.46,13.26c-1.62,0-2.94-0.66-3.96-1.68
			l-7.92,1.62c-2.58,0-4.56-0.84-5.94-2.22c-4.8-3.6-6.06-7.38-6.06-11.94c0-10.14,7.26-24.48,14.64-24.48c2.4,0,4.14,0.9,5.34,2.04
			c1.26-1.32,2.76-1.98,4.5-1.98c3.54,0,5.4,1.08,8.4,4.74c1.2,1.2,0.96,2.94-0.24,4.14c-1.38,1.38-2.88,5.64-3.9,10.08
			c0.42-0.12,0.78-0.24,1.08-0.24C266.7,179.2,267.66,179.86,270.42,183.1z"/>
		<path class="st2" d="M297.42,183.04c-0.06,0-0.12-0.06-0.12-0.06l0.18,0.12c0.66,0.66,0.96,1.62,0.72,2.58
			c-2.1,6.78-5.64,11.7-9.9,14.76c0,0.36-0.18,0.78-0.36,1.26c-2.58,7.86-7.2,13.8-15.84,13.8c-5.46,0-12.72-5.4-12.72-11.46
			c0-3.78,2.52-8.04,7.5-10.02c-1.86-2.28-2.7-6.24-2.7-10.74c0-10.02,4.44-22.8,10.92-22.8c3.54,0,5.4,1.08,6.06,2.46l0.9,0.9
			c1.2-2.1,2.7-3.36,4.68-3.36c3.54,0,5.4,1.08,8.4,4.74c1.2,1.2,0.96,2.88-0.24,4.08c-1.32,1.32-2.1,5.16-2.76,9.96
			c0.18-0.06,0.36-0.06,0.6-0.06C293.81,179.2,294.72,179.86,297.42,183.04z"/>
		<path class="st2" d="M329.33,172.72c1.92,1.92,2.94,4.68,2.94,6.72c0,2.46-1.32,4.14-4.26,4.14l-0.24-0.18
			c-1.32-1.32-2.64-1.74-3.9-1.74c-1.5,0-2.94,0.3-4.44,0.6c-0.36,0.12-0.72,0.18-1.08,0.24c-1.86,8.4-7.38,16.62-14.52,16.62
			c-2.82,0-4.92-0.9-6.42-2.4c-4.86-3.6-6.18-7.5-6.18-12.12c0-7.56,4.02-17.16,8.64-20.52h-0.06c1.32-2.28,3.54-3.66,6.54-3.66
			c3.3,0,5.76,1.38,9.42,5.64c0.6,0.66,1.08,1.38,1.5,2.16c1.2-0.54,2.46-0.96,3.66-0.96C324.05,167.26,326.33,169,329.33,172.72z"
			/>
	</g>
	<g>
		<path class="st3" d="M233.02,196.66c-7.8,0-12.36-16.2-11.46-19.44c-0.72-0.24-1.26-0.6-1.62-1.02
			c-1.14,6.12-2.4,15.06-1.08,18.36c0.06,0.54-0.3,1.98-2.82,1.98c-3.9,0-5.76-2.76-5.76-5.16c0-6.78,6.66-36.36,11.34-41.52
			c-6.48,3-10.02,11.28-10.02,15.78c0,1.92-6.3-1.86-6.3-6.12c0-3.9,7.2-15.9,18.96-15.9c20.82,0,12.84,28.38,1.98,33.12
			c0,3.18,6.54,13.62,10.14,13.62c2.28,0,3.18-0.9,3.18-0.9C241.72,189.46,239.02,196.66,233.02,196.66z M224.02,149.02
			c3.06,0.3,4.14,2.04,3.18,3c-0.72,0.72-4.08,10.02-6.3,19.68h0.06c0.06-0.06,0.12-0.06,0.12-0.06c6.54-0.6,15.6-22.92,5.64-22.92
			C225.76,148.72,224.86,148.78,224.02,149.02z"/>
		<path class="st3" d="M268.12,179.98c-0.78,2.34-4.08,11.76-9.36,11.76c-3.06,0-4.56-3.78-4.86-8.7c-1.44,4.5-3.72,8.64-7.02,8.64
			c-13.38,0-3.84-31.02,5.64-31.02c3.06,0,4.44,1.86,5.04,4.08c1.32-2.46,2.94-4.02,4.8-4.02c3.24,0,4.32,1.2,3.6,1.92
			c-3.6,3.6-7.86,24.12-4.38,24.12c2.16,0,5.16-5.88,5.76-7.08c0.06-0.18,0.24-0.24,0.36-0.24
			C268,179.44,268.18,179.68,268.12,179.98z M254.44,174.52c0.18-1.38,0.48-2.7,0.84-4.02c0.42-2.4,0.78-6.54-1.32-6.54
			c-3.06,0-8.82,20.04-5.22,20.04C251.26,184,253.36,178.12,254.44,174.52z"/>
		<path class="st3" d="M295.18,179.92c-2.76,8.88-8.16,14.28-14.28,16.2c1.5-0.12,4.26-0.9,4.08-0.48
			c-2.34,7.14-6.36,12.48-13.8,12.48c-10.98,0-9.66-14.94,4.26-14.94c1.5,0,2.88-0.18,4.2-0.48c0.78-3.18,1.44-6.72,1.98-10.32
			c-1.8,4.86-4.5,9.36-8.04,9.36c-8.82,0-4.68-31.02,3.6-31.02c3.18,0,4.32,1.14,3.6,1.86c-3.6,3.6-7.86,24.18-4.44,24.18
			c2.94,0,6.36-12.3,7.02-14.76c1.2-6.42,2.64-11.28,5.46-11.28c3.18,0,4.32,1.14,3.6,1.86c-3.36,3.36-3.48,15.78-5.76,26.82
			c4.8-3.6,7.26-8.64,7.8-9.72c0.06-0.18,0.18-0.24,0.36-0.24C295.06,179.44,295.24,179.68,295.18,179.92z M278.44,196.72
			c-0.9,0.12-1.8,0.18-2.76,0.18c-6.54,0-6.3,6.84-3.84,6.84C274.9,203.74,276.94,200.92,278.44,196.72z"/>
		<path class="st3" d="M327.94,176.2c-3.9-3.9-9.78-0.54-15.3-0.54c-0.66,0-1.32,0-1.92-0.12c1.26,0.42,4.68,0.48,4.56,1.08
			c-1.62,7.62-6.36,15.12-12.42,15.12c-12.54,0-6.36-23.82,0.84-28.14c0.9-1.74,2.52-2.94,4.68-2.94c5.16,0,7.38,4.44,7.5,9.9
			c2.64-1.2,4.92-3.06,7.08-3.06C328.84,167.5,330.46,176.2,327.94,176.2z M309.46,175.3c-3.78-0.84-5.82-3.36-6.48-6.06
			c-3.06,4.74-3.9,16.08,0.72,16.08C306.4,185.32,308.44,180.46,309.46,175.3z M310.06,171.46c0.36-4.26,0-7.86-1.44-7.86
			C306.1,163.6,305.08,170.26,310.06,171.46z"/>
	</g>
	<g>
		<g>
			<path class="st3" d="M191.55,252.16c0.12,0.55-1.44,1.93-3.96,1.78c-3.9-0.24-6.34-3.58-6.3-5.94c0.18-11.35,3.15-23,6.42-34.01
				c-4.01,9.07-8.8,19.26-9.36,28.61c-0.11,1.8-6.3-1.82-6.3-6.14c0-7.08,2.94-18.14,2.94-23.6c-2.69,9.17-8.19,29.94-14.82,30.8
				c-3.03,0.39-5.22-7.99-3.48-8.97c9.02-5.05,15.61-32.65,19.68-34.8c1.13-0.6,4.26,3.82,4.26,3.82
				c-0.31,10.01-2.33,19.77-2.94,29.75c3.59-9.61,8.9-30.24,16.68-32.26c2.64-0.68,5.22,2.14,4.14,3.2
				C191.37,217.07,186.1,238.19,191.55,252.16z"/>
			<path class="st3" d="M224.31,236.72c-0.78,2.4-4.08,12.09-9.36,12.35c-3.06,0.15-4.56-3.59-4.86-8.5
				c-1.44,4.55-4.08,9.07-7.02,8.78c-12.92-1.27-2.8-29.59,5.64-31.12c2.56-0.46,4.44,1.7,5.04,3.89c1.32-2.52,2.94-4.16,4.8-4.27
				c3.24-0.19,4.32,0.91,3.6,1.69c-3.6,3.85-7.86,24.6-4.38,24.4c2.16-0.12,5.16-6.21,5.76-7.46c0.06-0.19,0.24-0.26,0.36-0.27
				C224.19,236.19,224.37,236.42,224.31,236.72z M210.63,232.04c0.18-1.39,0.55-2.76,0.84-4.05c0.51-2.29,0.78-6.56-1.32-6.49
				c-3.06,0.1-8.82,20.22-5.22,20.16C207.45,241.62,209.55,235.67,210.63,232.04z"/>
			<path class="st3" d="M248.91,234.12c-0.72,2.43-4.02,12.37-9.42,12.95c-4.86,0.52-7.02-4.39-7.86-7.61
				c-0.18,3.44-0.18,6.02-0.18,6.92c0,1.62-3.47,1.97-4.14,1.74c-6.66-2.28,2.47-44.62,10.32-47.35c2.33-0.81,4.2,0.63,3.6,1.47
				c-4.68,6.57-7.14,15.98-8.4,24.44c1.92-5.22,5.95-11.46,8.52-11.08c7.23,1.09,0.42,18.2-5.64,22.25c0,0,1.5,4,6.42,3.46
				c2.76-0.31,5.52-6.15,6.06-7.42c0.06-0.19,0.18-0.26,0.36-0.28C248.85,233.59,249.03,233.81,248.91,234.12z M239.61,218.74
				c-2.52,0.27-7.32,11.96-7.74,17.04c-0.02,0-0.04,0-0.06,0.01c0,0.24,0,0.42,0,0.66C235.77,234.28,242.01,218.49,239.61,218.74z"
				/>
			<path class="st3" d="M287.31,229.55c-0.72,2.42-3.84,12.17-9.36,12.84c-1.32,0.16-2.28-0.8-2.88-2.47c-1.5,1.92-3,3.19-4.44,3.37
				c-5.04,0.63-7.5-3.25-8.22-8.44c-1.86,5.15-5.53,10.91-8.1,10.5c-8.01-1.29-3.08-29.1,3.6-31.47c2.42-0.86,4.32,0.6,3.6,1.41
				c-3.6,4.05-7.86,25.17-4.38,24.73c2.16-0.27,4.55-7.94,5.34-12.43c1.22-6.99,4.2-14.81,8.16-15.31c3.18-0.4,4.32,0.6,3.6,1.41
				c-3.6,4.04-8.04,25.18-3.06,24.56c0.9-0.11,1.98-1.33,3-3.13c-0.54-9.11,2.58-23.6,5.64-23.96c5.82-0.69,3,14.28-1.86,24.04
				c-0.24,0.45-1.38-1.99-1.68-1.9c0.54,2.51,1.74,4.11,3.84,3.86c2.76-0.33,5.82-6.55,6.42-7.82c0.06-0.19,0.24-0.27,0.36-0.28
				C287.19,229.03,287.37,229.25,287.31,229.55z M275.97,231.41c3-7.27,5.16-17.6,3.06-17.35
				C277.71,214.22,275.31,224.59,275.97,231.41z"/>
			<path class="st3" d="M310.41,227.56c-0.72,2.38-4.06,12-11.1,12.51c-18.78,1.35-10.8-29.27,2.28-31.27
				c9.13-1.39,4.92,17.61-3.06,18.32c-1.56,0.14-2.4-0.32-2.88-0.94c-0.36,4.71,0.9,8.71,5.64,8.32c5.04-0.41,7.8-5.96,8.34-7.2
				c0.06-0.12,0.18-0.25,0.36-0.26C310.29,227.02,310.47,227.25,310.41,227.56z M295.83,224.78c0.24,0.16,0.54,0.25,0.96,0.21
				c4.38-0.4,7.86-13.08,5.22-12.87C299.85,212.3,296.67,218.82,295.83,224.78z"/>
			<path class="st3" d="M333.15,227.14c-0.72,2.32-4.06,11.63-11.1,11.66c-18.28,0.09-11.5-29.97,2.28-31.11
				c9.15-0.76,4.92,17.93-3.06,18.11c-1.56,0.03-2.4-0.48-2.88-1.12c-0.36,4.69,0.9,8.75,5.64,8.7c5.04-0.06,7.8-5.37,8.34-6.55
				c0.06-0.12,0.18-0.24,0.36-0.23C333.03,226.59,333.21,226.84,333.15,227.14z M318.57,223.29c0.24,0.17,0.54,0.28,0.96,0.27
				c4.38-0.12,7.86-12.54,5.22-12.52C322.59,211.06,319.41,217.38,318.57,223.29z"/>
			<path class="st3" d="M372.39,227.07c0,6.06-7.01,18.65-17.52,17.15c-14.79-2.11-6.49-28.67-7.38-29.96
				c-0.17-0.24-7.2,8.32-8.4,19.77c0,1.2-0.06,2.46-0.06,3.78c0,1.02-3.26,1.51-4.14,1.14c-5.53-2.34,1.63-21.36,0.66-30.16
				c0-0.9,1.58-1.04,2.28-0.98c2.11,0.16,4.44,1.82,4.44,3.5c0,0.9-1.26,5.25-2.58,11.3c2.82-7.46,7.14-14,9.66-13.73
				c4.68,0.5,5.94,4.99,5.94,5.41c0,0-1.92,3.1-3.3,9.65c-1.74,8.25-1.2,16.65,3.66,17.34c6.6,0.94,12.66-20.34,7.68-21.29
				c-0.84-0.16,0.24-2.61,2.1-2.23C369.21,218.53,372.39,221.73,372.39,227.07z"/>
		</g>
	</g>
</g>
</svg>
